<?xml version="1.0" encoding="UTF-8" standalone="no"?>
<svg
   xmlns:dc="http://purl.org/dc/elements/1.1/"
   xmlns:cc="http://creativecommons.org/ns#"
   xmlns:rdf="http://www.w3.org/1999/02/22-rdf-syntax-ns#"
   xmlns:svg="http://www.w3.org/2000/svg"
   xmlns="http://www.w3.org/2000/svg"
   xmlns:sodipodi="http://sodipodi.sourceforge.net/DTD/sodipodi-0.dtd"
   xmlns:inkscape="http://www.inkscape.org/namespaces/inkscape"
   version="1.1"
   x="0"
   y="0"
   width="200"
   height="50"
   viewBox="0, 0, 500, 100"
   id="opencfp-logo"
   inkscape:version="0.91 r13725"
   sodipodi:docname="logo.svg">
  <metadata
     id="metadata3392">
    <rdf:RDF>
      <cc:Work
         rdf:about="">
        <dc:format>image/svg+xml</dc:format>
        <dc:type
           rdf:resource="http://purl.org/dc/dcmitype/StillImage" />
      </cc:Work>
    </rdf:RDF>
  </metadata>
  <defs
     id="defs3390" />
  <sodipodi:namedview
     pagecolor="#ffffff"
     bordercolor="#666666"
     borderopacity="1"
     objecttolerance="10"
     gridtolerance="10"
     guidetolerance="10"
     inkscape:pageopacity="0"
     inkscape:pageshadow="2"
     inkscape:window-width="1920"
     inkscape:window-height="1016"
     id="namedview3388"
     showgrid="false"
     inkscape:zoom="1.825"
     inkscape:cx="96.164384"
     inkscape:cy="25"
     inkscape:window-x="1920"
     inkscape:window-y="0"
     inkscape:window-maximized="1"
     inkscape:current-layer="g3362"
     inkscape:snap-text-baseline="true" />
  <g
     id="g3362">
    <g
       id="g3364"
       transform="translate(-35.616438,-4.109589)">
      <path
         class="megaphone-end"
         d="m 128.559,57.158 c -3.954,0 -7.158,-3.205 -7.158,-7.158 0,-3.953 3.204,-7.158 7.158,-7.158 3.953,0 7.157,3.205 7.157,7.158 0,3.953 -3.204,7.158 -7.157,7.158 z"
         id="path3366"
         inkscape:connector-curvature="0"
         style="fill:#110000" />
      <path
         class="megaphone-base"
         d="M 106.578,78.948 C 101.18,75.312 56.956,50.086 56.956,50.086 c 0,0 42.938,-24.925 49.991,-28.861 7.052,-3.937 22.909,2.592 22.393,28.402 -0.516,25.811 -17.365,32.957 -22.762,29.321 z"
         id="path3368"
         inkscape:connector-curvature="0"
         style="fill:#e9edee" />
      <path
         class="megaphone-base"
         d="m 62.459,47.244 0,0 c 3.148,-0.116 5.79,2.221 5.901,5.22 l 0.803,21.724 c 0.11,2.999 -2.352,5.525 -5.5,5.641 l 0,0 c -3.148,0.116 -5.79,-2.221 -5.9,-5.22 L 56.96,52.885 c -0.111,-2.999 2.351,-5.525 5.499,-5.641 z"
         id="path3370"
         inkscape:connector-curvature="0"
         style="fill:#e9edee" />
      <path
         class="megaphone-cover"
         d="m 55.142,37.056 20.04,0 c 5.27,0 9.543,3.864 9.543,8.629 l 0,8.63 c 0,4.765 -4.273,8.629 -9.543,8.629 l -20.04,0 c -5.27,0 -9.542,-3.864 -9.542,-8.629 l 0,-8.63 c 0,-4.765 4.272,-8.629 9.542,-8.629 z"
         id="path3372"
         inkscape:connector-curvature="0"
         style="fill:#99cc99" />
    </g>
    <text
       xml:space="preserve"
       style="font-style:normal;font-variant:normal;font-weight:bold;font-stretch:normal;font-size:74.99999842px;line-height:100%;font-family:'Liberation Serif';-inkscape-font-specification:'Liberation Serif, Bold';text-align:start;letter-spacing:0px;word-spacing:0px;writing-mode:lr;text-anchor:start;fill:#ffffff;fill-opacity:1;stroke:none;stroke-width:1px;stroke-linecap:butt;stroke-linejoin:miter;stroke-opacity:1;"
       x="129.89128"
       y="63.215637"
       id="text3394"
       sodipodi:linespacing="100%"
       transform="scale(0.85015067,1.1762621)"><tspan
         sodipodi:role="line"
         id="tspan3400">SNOW</tspan></text>
    <text
       xml:space="preserve"
       style="font-style:normal;font-variant:normal;font-weight:bold;font-stretch:normal;font-size:74.99999888px;line-height:100%;font-family:'Liberation Serif';-inkscape-font-specification:'Liberation Serif, Bold';text-align:start;letter-spacing:0px;word-spacing:0px;writing-mode:lr;text-anchor:start;fill:#99cc99;fill-opacity:1;stroke:none;stroke-width:1px;stroke-linecap:butt;stroke-linejoin:miter;stroke-opacity:1;"
       x="359.13934"
       y="63.215637"
       id="text3394-6"
       sodipodi:linespacing="100%"
       transform="scale(0.85015066,1.1762621)"><tspan
         sodipodi:role="line"
         id="tspan3420">CAMP</tspan></text>
  </g>
</svg>
